# xmcd
#
# Track frame offsets:
#	225
#	11759
#	23636
#	39344
#	59043
#	70559
#	86053
#	108772
#	121254
#	140027
#	154476
#	171952
#	189574
#	215781
#	230195
#	263072
#	282185
#	300091
#
# Disc length: 4182
#
# Revision: 1
# Processed by: cddbd v1.5.1PL0 Copyright (c) Steve Scherf et al.
# Submitted via: audiograbber 1.80.04
# Normalized: r0:DSETVAR1
#
DISCID=01105312
DTITLE=Various Artist - Black is Black vol. 3
DYEAR=1900
DGENRE=Blues
TTITLE0=Martha Reeves - Dancing in the streer
TTITLE1=Billy Joe Royal - Down in the Boondocks
TTITLE2=Andrea True Connection - More, more, more
TTITLE3=Relief - We are the world
TTITLE4=Mel and Tim - Backfield in motion
TTITLE5=Dobie Gray - Drift away
TTITLE6=Wilson Picket and Jackie Moore - Precious, precious
TTITLE7=Joe Simon - My special prayer
TTITLE8=Gladys Knight and The Pips - Midnight train to Georgia
TTITLE9=Rufus Thomas - Do the funky chicken
TTITLE10=Archie Bell and The Frells - Look back over your shoulder
TTITLE11=Johny Bristol and Liz Lands - Hang on in there baby
TTITLE12=Billy Preston and Syreeta - Watching the hands of time
TTITLE13=The Temptations - My girl
TTITLE14=Joe Tex - Ain't gonna bump no more
TTITLE15=Curtis Mayfield - Superfly
TTITLE16=Bewerlee Wallace - Oh happy day
TTITLE17=Fontella Bass - Rescue me
EXTD=
EXTT0=
EXTT1=
EXTT2=
EXTT3=
EXTT4=
EXTT5=
EXTT6=
EXTT7=
EXTT8=
EXTT9=
EXTT10=
EXTT11=
EXTT12=
EXTT13=
EXTT14=
EXTT15=
EXTT16=
EXTT17=
PLAYORDER=
